<svg width="864" height="427" viewBox="0 0 864 427" fill="none" xmlns="http://www.w3.org/2000/svg">
<path fill-rule="evenodd" clip-rule="evenodd" d="M182.442 1.2712C164.984 5.5842 152.655 17.6252 147.988 34.9182C146.593 40.0892 146 44.3632 146.39 46.4422C147.243 50.9862 152.036 54.8662 156.796 54.8662C163.278 54.8662 164.796 53.0122 168.52 40.5482C174.178 21.6122 196.411 15.0822 210.674 28.1662C221.659 38.2442 222.48 52.2932 212.731 63.3682C209.495 67.0442 206.284 69.2162 199.264 72.4742C186.81 78.2542 184.69 81.3022 184.124 94.2422L183.724 103.389L117.949 133.741C80.3967 151.07 50.0857 165.655 47.3077 167.731C41.8847 171.784 38.5647 176.622 15.5257 214.046C3.01373 234.369 0.534726 239.041 0.152726 243.025C-0.252274 247.24 0.0187266 248.091 2.56873 250.592C4.14873 252.141 18.7887 261.162 35.1007 270.638C68.2327 289.883 69.1907 290.22 75.3587 284.804C77.2767 283.121 79.1227 280.871 79.4617 279.804C81.5817 273.123 81.9417 283.201 81.9417 349.26V420.654L84.8427 423.76L87.7437 426.866H194.208C300.085 426.866 300.687 426.855 303.283 424.812C304.719 423.683 306.374 421.095 306.961 419.062C307.686 416.553 307.935 392.566 307.735 344.366L307.442 273.366H296.442H285.442L285.213 338.866L284.985 404.366L194.463 404.621L103.942 404.877L103.94 324.121C103.939 249.241 103.812 243.111 102.19 239.867C98.7357 232.955 90.5347 232.131 85.2677 238.168C83.7137 239.949 78.8417 246.454 74.4417 252.623C70.0417 258.792 66.1927 263.733 65.8887 263.603C65.5847 263.472 56.0747 258.008 44.7547 251.459L24.1737 239.552L39.6647 213.959C48.1847 199.883 56.1197 187.309 57.2987 186.017C58.4777 184.725 61.6917 182.52 64.4417 181.116C70.9977 177.771 124.062 153.866 124.933 153.866C125.303 153.866 127.036 156.074 128.784 158.772C130.533 161.471 135.542 167.045 139.916 171.159C148.575 179.306 161.138 186.337 172.442 189.366C181.011 191.662 198.194 192.417 206.572 190.866C226.941 187.095 245.571 176.158 256.669 161.455C259.197 158.106 261.574 155.007 261.951 154.569C262.562 153.858 306.134 172.513 321.442 180.041C329.855 184.178 333.104 187.721 338.094 198.199C340.485 203.221 343.641 209.762 345.106 212.734L347.771 218.139L344.755 220.677C335.429 228.524 328.313 240.472 325.881 252.366C324.137 260.89 324.335 277.07 326.281 285.116C330.912 304.267 344.6 318.396 362.942 322.958C370.548 324.85 386.018 324.566 393.442 322.398C406.95 318.453 418.797 308.698 424.737 296.633C433.07 279.702 433.077 255.043 424.753 238.134C420.784 230.072 413.042 221.505 405.777 217.134C398.954 213.029 386.66 209.866 377.531 209.866H370.441L360.974 194.116C354.072 182.632 349.602 176.439 344.475 171.253C336.117 162.8 339.917 164.704 262.692 130.292L206.942 105.45V98.7092V91.9682L213.692 88.7522C218.067 86.6672 222.579 83.3952 226.517 79.4512C244.655 61.2852 245.633 33.8252 228.799 15.4372C217.379 2.96422 198.699 -2.7448 182.442 1.2712ZM217.629 134.397C230.668 140.189 241.54 145.131 241.788 145.379C242.767 146.358 236.439 154.009 231.581 157.718C212.299 172.443 186.7 174.85 165.14 163.966C156.727 159.719 143.364 147.111 145.263 145.212C146.237 144.238 191.482 123.875 192.682 123.871C193.364 123.868 204.59 128.605 217.629 134.397ZM722.34 161.755C709.288 165.492 700.414 173.359 697.082 184.149C695.981 187.713 694.763 194.942 694.377 200.212L693.673 209.795L684.558 210.08L675.442 210.366V220.866V231.366L685.192 231.652L694.942 231.938V276.347V320.755L708.029 321.06C715.227 321.228 721.302 321.178 721.529 320.949C721.756 320.72 721.942 300.583 721.942 276.199V231.866H733.942H745.942V220.866V209.866H733.298H720.655L721.311 202.803C722.738 187.45 726.876 183.876 743.648 183.513L750.442 183.366L750.73 172.88C750.976 163.886 750.771 162.214 749.288 161.13C746.695 159.234 729.776 159.627 722.34 161.755ZM642.942 162.016C636.055 164.01 631.942 169.862 631.942 177.668C631.942 186.583 638.559 192.861 647.958 192.864C657.678 192.868 664.338 185.742 663.648 176.075C662.883 165.352 653.478 158.966 642.942 162.016ZM568.942 194.366V209.866H560.442H551.942V220.866V231.866H560.442H568.942L568.959 261.116C568.978 292.002 569.783 299.752 573.78 307.51C576.476 312.743 581.436 317.3 587.442 320.065C591.791 322.066 594.005 322.363 604.442 322.344C621.131 322.313 621.089 322.345 620.728 310.062L620.442 300.366L611.942 299.813C607.267 299.509 602.677 298.907 601.741 298.475C597.74 296.627 596.965 290.808 596.697 260.615L596.442 231.865H608.192L619.942 231.866V220.866V209.866H607.942H595.942V194.366V178.866H582.442H568.942V194.366ZM260.165 202.423C258.942 203.279 257.932 204.741 257.92 205.673C257.879 208.868 254.09 215.75 249.825 220.377C244.967 225.647 239.32 229.208 233.307 230.792C226.355 232.623 226.58 238.637 233.684 240.906C244.655 244.411 253.917 253.04 256.994 262.624C258.528 267.404 260.696 269.87 263.347 269.851C266.667 269.826 267.647 268.729 270.023 262.378C273.066 254.245 280.092 246.933 288.22 243.44C297.418 239.487 297.442 239.466 297.442 235.795C297.442 232.207 297.073 231.912 287.942 228.206C279.747 224.88 272.078 216.137 268.997 206.608C267.904 203.229 265.531 200.866 263.23 200.866C262.766 200.866 261.387 201.567 260.165 202.423ZM484.705 208.833C457.273 213.835 440.894 235.641 440.959 267.074C441.02 295.894 456.554 317.107 481.442 322.355C512.152 328.831 538.809 312.543 546.069 282.866C546.863 279.622 547.381 272.239 547.332 264.866C547.26 253.913 546.899 251.327 544.417 243.977C538.956 227.8 527.66 216 512.83 210.98C505.62 208.54 492.011 207.5 484.705 208.833ZM634.942 265.171C634.942 295.62 635.128 320.72 635.355 320.949C635.583 321.179 641.886 321.229 649.364 321.062L662.959 320.758L662.7 265.562L662.442 210.366L648.692 210.088L634.942 209.81V265.171ZM755.196 211.616C755.463 212.578 764.79 237.432 775.922 266.847L796.162 320.328L794.509 325.571C791.287 335.793 784.333 340.805 773.319 340.844L767.196 340.866L766.228 351.616C765.657 357.953 765.627 362.777 766.155 363.366C766.652 363.92 772.064 364.366 778.3 364.366C789.288 364.366 789.725 364.279 797.153 360.607C805.616 356.424 813.377 348.893 817.383 340.976C819.426 336.94 863.942 212.15 863.942 210.46C863.942 210.102 857.79 209.935 850.27 210.088L836.599 210.366L823.847 249.866C811.918 286.815 811.019 289.172 809.925 286.366C808.191 281.922 782.942 210.693 782.942 210.248C782.942 210.038 776.59 209.866 768.825 209.866C755.862 209.866 754.749 210.009 755.196 211.616ZM502.154 233.422C521.382 239.974 527.13 274.915 511.845 292.324C504.95 300.177 493.105 302.243 483.22 297.317C473.163 292.306 468.606 282.874 468.507 266.866C468.433 254.905 469.602 250.067 474.206 243.281C481.011 233.249 491.15 229.673 502.154 233.422ZM390.819 237.166C399.866 243.153 404.402 254.582 403.752 269.753C402.884 290.024 393.454 300.912 376.826 300.844C369.73 300.815 364.316 298.234 359.228 292.454C354.37 286.934 352.059 280.916 351.248 271.669C350.173 259.415 354.095 246.878 361.103 240.169C366.315 235.178 370.37 233.805 379.015 234.104C385.378 234.324 387.264 234.814 390.819 237.166Z" fill="#0068F2"/>
</svg>
